<svg xmlns="http://www.w3.org/2000/svg" enable-background="new 0 0 462.2 503.6" viewBox="0 0 462.2 503.6" id="financial-graph"><g><path fill="#e1f0ff" d="M458.5 473.1c-4.6-4.2-10.3-5.7-16.3-5.3-3.1.1-6.2.3-9.2.8-2.8.5-5.7.7-8.4 1.4.2 1.2 1.3 1.1 2 1 3.7-.1 7.4.6 11 1 4 .5 8 1.2 11.4 3.6.8.4 1.3 1.2 1.5 2 .8 2.4-.2 5.1-2.5 6.3-.8.5-1.6.8-2.5 1.1-2.8.8-5.6 1.3-8.5 1.5-10 .6-19.7-1.6-29.4-3.9-1.4-.4-2.8-.9-4.1-1.6-2.4-1.3-4.5-2.8-4.3-6 0-.3 0-.6-.2-.9h-.1c-2.6.5-5.3.8-8 .9-4.6-.1-9.1.9-13.7.4s-9.3-.1-13.9-.5c-2.8-.2-5.6-.1-8.3-.4-4.2-.5-8.4-.1-12.5-.5-3.6-.4-7.1 0-10.7-.4-4.6-.5-9.3-.2-13.9-.5l-13.2-.9c-3.9-.3-7.9-.5-11.8-1-4.4-.5-8.7-1-13.1-1.7-5.4-.8-10.8-1.8-16.1-2.9-.9-.1-1.8-.4-2.6-.8 0-.1 0-.2-.1-.3-.9.2-1.7.8-2.2 1.5-1.7 1.6-3.1 3.6-5.3 4.7-2.9 2.2-6.3 3.5-9.9 3.8-7.5.8-15 1.4-22.5 1.7-2.6.1-5.2 1-7.9.2-.9-.1-1.7-.2-2.6-.1-1.8.1-3.6-.8-4.7-2.3-.2-.3-.3-.6-.5-.9-.4-1.7.6-2.8 1.9-3.6 4.5-2.8 9.6-4.5 14.8-4.9 5.2-.5 10.4-1.2 15.7-.7.5 0 .9-.1 1.3-.5.1-1.6-1-3-2.6-3.3-2.9-.4-5.8-.6-8.7-1.1-3.7-.6-7.5-.9-11.3-1.2-3.8-.2-7.6.1-11.3.9-3.5.5-6.7 1.9-9.6 3.8-4.3 2.8-5.4 8.6-2.6 12.9.1.1.1.2.2.3 1.4 1.9 3.1 3.6 5.1 5 4.7 3.4 10.1 5.4 15.6 6.9 9.3 2.5 18.8 3.4 28.3 4.6 4.3.5 8.6.8 12.9 1.5 4.6.7 9.3 1.2 14 1.7 5 .6 10 .8 15 1.4s9.8.9 14.7 1.5c5.2.6 10.4 1.1 15.7 1.4 2.4.1 4.8.1 7.2.5 5.4.7 10.8.7 16.1 1.3 2.9.3 5.9.2 8.8.4 4.5.4 9.1.4 13.7.5 14.5.2 29 .1 43.5.1.6 0 1.2 0 1.9-.1 3.5-.8 7.1-.4 10.6-.7 3.9-.4 7.9-.6 11.8-1.2 5.9-.9 11.7-2.1 17.4-3.7 3.7-1 7.1-2.7 10.2-4.9 2.9-2.1 4.5-5.1 5.8-8.5 1.7-4.6.2-8.3-3-11.3z"></path><path fill="#ffa76c" d="M392 111.5c.5.7.3 1.5.3 2.3.4 10 0 20 .1 30 0 .8.1 1.5.1 2.4.9-.2 1.8-.6 2.7-1.1 2.8-1.1 5.9.2 7.1 2.9.3.7.4 1.4.4 2.1.1 2.5-.4 5-1.7 7.2-2.1 3.4-1.7 6.8-.5 10.3 1.3 3.6 2.4 7.4 3.2 11.1.4 1.8.7 3.7.8 5.5.1 3.6.9 7.1 2.5 10.3 1.3 2.7 2.5 5.5 3.7 8.3.5 1.1.9 2.3 1.2 3.5.6 2.5-.1 5.1-1.8 6.9-2-1.5-3.7-.7-5.6.2-7.9 4-16.6 5.5-25.1 7.4-5.4 1.2-10.8 2.2-16.3 2.9-6.4.8-12.6.6-18.7-1.9-9.3-3.7-17.4-9.1-25-15.4-4.5-3.7-7.9-8.4-12.1-12.2-.1-.1-.1-.4 0-.4 2.9-2.1 3.5-5.3 4-8.6.7-4.9 4.2-8.1 7.3-11.3 6-6.2 10.8-13.5 14.1-21.5 1.3-2.8 3-5.4 5.1-7.6 1.4-1.5 2.3-3.5 2.5-5.6.1-2.7 1.7-5.1 4-6.4 2.3-1.2 3.9-.9 5.1 1.3 1 1.9 2.2 1.8 3.8 1.1 3.5-1.6 6.4-4 9.8-5.9 5.9-3.3 11.8-2.4 16.4 2.6 2.3 2.4 5 4.4 8.1 5.7 1.1.4.8 1.7 1.5 2.3.3.4.5.8.7 1.2.2.4.4.9.6 1.4.3.9.5 1.8.7 2.8.3-.7.4-1.5.3-2.3v-28.1c0-1.1-.4-2.4.7-3.4z"></path><path d="M307.2 194.2c.8-.1 1.3.5 1.7 1l3.6 3.9c7.4 8.1 16.2 14.8 26 19.6 4.6 2.2 9.3 4.4 14.4 4.9 3.1.3 6.3.3 9.5-.2 10.5-1.6 20.9-3.9 31.2-6.4 4.5-1.1 8.7-3.2 12.9-5.1 1.8-.8 1.8-.9 3 .7.2.2.4.5.5.8.9 2.4.3 4.8-.1 7.1-.2 1-.1 2 .4 2.9 2.6 5.9 5.9 11.4 8.8 17.1 5.9 11.5 12 22.9 16.7 35 3.5 8.8 6.5 17.7 8.8 26.9 1 .1 1.4-.7 2-1.1 1.3-.8 2.4-.7 2.8.7.8 2.6 1.3 5.2 1.6 7.9 0 1.4-.6 2.6-1.8 3.4l-2.9 2.3c-1.5 2.2-3.8 3.4-6 4.6-3.3 1.8-6.8 3.4-10.3 4.7-3 1.1-3 1.2-2.5 4.2 1.7 10 3.5 20 4.8 30.1.8 6.1 1.5 12.3 2.1 18.5.4 3.6-.5 4.7-4.1 5.5s-7.5.7-11.3 1.1c-1.4.2-2.8.3-4.1.2-2.5 0-2.6.2-2.2 2.7.9 5.3 2.2 10.6 4 15.6 2.2 8.7 7.6 14.7 15.4 18.9.4.2.8.5 1.1.7 2.7 1.6 2.7 1.6 3.1-1.4.3-1.7 0-3.4.2-5.1.2-1.4.4-3 2.4-2.9 1.4 14-1.6 28.2-8.5 40.5-3.1 5.7-6.7 11.1-10.2 16.6-1.1 1.1-2.1 1-2.9-.4.1-.9.5-1.8 1.1-2.5 3.3-5.3 6.7-10.4 9.7-15.9 3.5-6.5 6-13.5 7.3-20.8.4-1.6-.4-3.3-2-3.9-5-2.8-9.9-5.7-13.8-10.2-3.3-3.8-4.9-8.4-6.6-13-1.9-5.3-3.3-10.9-3.9-16.5-.3-1.8-1-2.6-2.8-2.5-8.9.1-17.8-.4-26.7-.5-10.9-.2-21.9 0-32.8-.5-7.5-.3-14.9 0-22.3-.4-12.7-.8-25.4-.1-38.1-.5-5.8-.2-11.6-.5-17.4-1-1.7-.1-2.4.3-2.8 1.9-1.3 5-3 10-5.1 14.7-1.2 2.7-3 5.1-5.4 6.9-5.8 4.4-12.3 7.5-18.8 10.7-5.8 3-5 1.4-5.2 8.2-.4 10.7 1.5 21.4 5.4 31.4 1 2.3 2.4 4.4 4.2 6.1.8.6 1.4 1.5 1.8 2.4-1.2 1.7-2.5 1.3-3.8.2l-2.7-3c-3.9-5.8-5.2-12.5-6.6-19.2-1.8-8.4-2.1-17-.9-25.5 1.2-8.8 3.6-17.5 7.1-25.7 1.1-2.8 2.4-5.5 3.9-8.2 1.7-2.7 2.5-5.8 3.7-8.8 1.7-4.3 3.6-8.5 5.6-12.8 5.3-11.5 9.3-23.7 11.8-36.1 1.5-7.5 2.3-15.2 3.2-22.8.2-1.7.4-3.4.5-5.1.2-1-.5-2-1.5-2.1-4.3-1.4-8.5-2.9-12.7-4.5-8.6-3.2-16.9-7-25-11.3-.5-.3-1-.7-1.6-.1-1.1 1.1-2.3.7-3.4 0l-4.5-3.3c-1.4-.9-1.9-2.6-1.1-4.1.1-.6.3-1.2.6-1.7 3.6-4.2 5.4-9.4 7.2-14.4 3.9-10.6 6.7-21.4 9.6-32.3 1.5-5.8 3.6-11.4 6.4-16.7 2-3.2 5.9-4.7 9.5-3.9 1 .2 1.9.9 2.2 1.9.5 1.9 1.6 1.8 3.2 1.7 12.3-1.2 24.5-3.2 36.8-5.4 1.6-.3 3.2-.5 4.8-.8 3-.5 5.7-1.3 7.7-3.8.9-.9 2.2-2.1 4.1-1.8z"></path><path fill="#ffa76c" d="M239.2 206.8c-5.4 11-7.7 23-11.1 34.6-2.1 6.9-4.3 13.7-7 20.4-1.4 3.6-3.4 6.9-6.1 9.8-5.9-4.9-11.7-9.9-17.1-15.4-6.2-6.2-11.7-13.1-16.4-20.5-2.5-4.1-4.5-8.5-6.1-13-.8-1.9-1.5-3.9-2.3-5.8-.8-.9-1.2-2-2-2.8.1-.8.1-1.5-.1-2.3-3.1-8.5-5.4-17.3-8.6-25.8-.6-1.7-1.3-3.3-2.2-4.8-.2-1-.7-1.9-1.3-2.7-.7-1.6-1.7-3.1-2.8-4.5-.7-.8-1.3-1.8-2.1-2.6-.5-.7-.9-1.4-1.2-2.3-.7-2.2.4-3.8 2.9-4.1 1.8 1 2.3 2.9 3.1 4.5 1.2 2.2 2.2 4.6 3.3 6.8-.9-2.8-2-5.6-3.5-8.2-.6-1-1.4-1.9-1.1-3.2 1.3-1.2 3.3-1.5 4.9-.6.2.2.3.4.4.6.2.3.3.6.5 1 1.3 3.6 1.6 7.3 2.4 11-.1-3.6-1.4-7-1.6-10.6.8-2.1 1.9-1 2.7-.1 1.3 1.4 1.8 3.2 2.4 4.9.4.8.8 1.5 1.1 2.4 1.4 3.6 1.8 7.5 2.2 10.9.1-1-.3-2.4-.2-3.9.2-2.3 1.5-4.1 3.2-4.4s3.4 1.1 4 3.5c.9 3.3 1.3 6.7 1.1 10.1-.4 7.1 3.4 10.7 8.9 12.4 6.3 2 12.9 2.6 19.4 3.5 4.4.7 8.9 1.1 13.4 1.2 4.5.1 9-.1 13.4-.5 1.3 0 2.4-.4 3.5.5z"></path><path d="M171.2 214.2c1.8.1 1.6 1.6 1.8 2.7-9.4.1-18.8.7-28.1 1.1-3.5.2-7 .5-10.4.9-8.4.8-16.7.8-25.1 1.1-9.2.3-18.3.7-27.5.9-6.5.1-13-.1-19.5.5-6.3.6-12.7.9-19.1.8h-6.8c-5.3-.1-10.7 0-16 .4-1.5.2-3.1 0-4.6-.5-2-.5-3.5-2.3-3.6-4.4-.1-1.2-.2-2.3-.1-3.5.3-7.1.2-14.1-.4-21.2-.3-4.8-.7-9.6-.7-14.4-.1-14.2-1.4-28.4-2.7-42.5-1.1-12-1.9-24-2.5-36-.4-7.2-.9-14.5-1.4-21.9-.3-4.3-.9-8.6-1.4-13-.5-5.3-.5-10.7-.5-16.1.1-5-.2-9.9-.9-14.9-.5-4.1-.7-8.3-.7-12.5.1-.9-.2-1.9-.7-2.6-.7-.9-.4-1.8.8-2.1.9-.3 1.8-.5 2.7-.6 3.9-.4 7.9-.6 11.9-.6 6.1 0 12.2-.6 18.4-1 7.7-.6 15.5-1.3 23.2-1.7 8.4-.4 16.7-1 25.1-1.7 6-.5 12.1-.6 18.1-.8 13-.4 26.1-.8 39.1-1.4 11.7-.5 23.4-.9 35.1-.7 7.6.1 15.2-.2 22.8-.7 10.8-.8 21.5-1.2 32.3-1.7 7.1-.3 14.3-.9 21.4-1.5 7.7-.6 15.3-.9 23-1.3C281.6 3 289 2.1 296.5 2h1.2c11.7.2 23.4-.6 35.1-1.5 9.5-.6 18.9-.7 28.4-.5 4.1.1 8.2.7 12.3 1.1 1.8.2 3.6.2 5.3.1.9-.1 1.9 0 2.8.2 2.5.6 3.5 2 3.9 4.6 1.5 11.2 2 22.4 2.5 33.7.3 8.3.7 16.6 1.2 24.9.8 12.6 1.6 25.2 2.5 37.9.2 3 .3 6 .4 9.1-.2 1.3-.2 2.6 0 3.9.4 10-.2 20.1.1 30.1.1.9-.5 1.8-1.4 2l-1.1-5.4c-.5-1.7-.7-3.5-.7-5.3v-28.4c0-.9-.1-1.7-.4-2.5-1-4.1-.6-8.3-1-12.5-.9-8.9-.9-17.8-1.7-26.7-.3-3.5-.6-7.1-.7-10.7-.2-8.6-.9-17.2-1.2-25.8-.3-6.8-.6-13.5-1.6-20.2-.1-1-.3-2-.4-3 0-1.4-1.1-2.5-2.5-2.5h-.5c-4.4.3-8.8-.6-13.2-.8-9.7-.5-19.4-.4-29.1 0-5.7.3-11.5.7-17.2 1.2-8.5.7-17.1.1-25.6.5s-17.1 1.2-25.7 1.6c-5.9.3-11.8.6-17.6 1-5 .3-10.1.6-15.1 1.1-4.8.5-9.6.4-14.4.7-10.7.6-21.4 1.3-32 1.9-7.6.4-15.2-.1-22.8.1-12.2.4-24.3.3-36.5 1.2-4.3.3-8.7.6-13 .6-14.3.1-28.5.5-42.8 1.7-10.4.9-20.9 1.1-31.3 2-7.7.7-15.5 1.1-23.2 1.7-3.3.2-6.5.1-9.8.1-.9 0-1.9 0-2.8.1-2.3.3-2.7.8-2.5 3 .9 11.7 2 23.3 1.8 35.1-.1 7.4 1.2 14.7 1.9 22 .4 3.8.4 7.6.7 11.4.7 11.6 1.4 23.2 2.2 34.8 1 13 2.4 25.9 3.1 39 .4 8.1 0 16.3.8 24.4.7 6.8 1 13.6 1 20.4 0 1.8-.1 3.6-.2 5.4-.1 3.1.8 4 3.9 4.2 3.6.2 7.1-.6 10.7-.5 6.7.1 13.4.3 20 0 11.2-.5 22.5-.8 33.7-1.3 4.6-.2 9.3-.3 13.9-.4 7.8-.1 15.7-.6 23.5-.7 7.2-.1 14.4-.9 21.6-1.6 3.4-.3 6.8-.3 10.2-.5 5.2-.3 10.4-.8 15.6-.7.9.2 1.7.4 2.4.9z"></path><path fill="#ffa76c" d="M439 413.1c-1.3.5-2.1 1.7-2 3.1.1 1.8 0 3.5-.3 5.3-1.3-1.5-.5-3.3-.4-4.7-1.1 1.9-1.9 4.3-4.4 5.4-4.7-2.1-8.7-5.5-11.5-9.8-2-2.7-3.4-5.7-4.1-9 0-5.8 1.2-11.4 1.8-17.1.1-.9.5-1.8 1-2.5l8.8-.8c1.6-.1 3.2-.4 4.7-1.1a2 2 0 0 0 1.4-2.3c-.4-5.3-1-10.5-1.6-15.7-1.5-12.3-3.6-24.5-5.8-36.7-.3-1.7-.3-1.7 1.4-2.2 5.6-2 11.1-4.2 16-7.8.8-.6 1.7-1.1 2.6-1.5.3 4.4 1.6 8.7 2.7 12.9 2 7.2 3.6 14.6 4.7 22 .2 1.5.3 3.1.4 4.6.1 4.8.9 9.5.4 14.4-.4 3.5-.5 6.9-1 10.4-.8 5-2.2 9.8-4.2 14.5-2.5 6-5.7 11.8-9.5 17-.7.3-1 .9-1.1 1.6zM417.6 470.1c.7.7 1.8.7 2.6.1 1.5.6 2.8-.4 4.3-.1 1.1.7 2.4.3 3.6.4 5.8.5 11.6.9 17.2 2.7 1.6.5 3.1 1.3 4.4 2.5-.8.7-1.8.4-2.7.3-5.8-.9-11.5-1.4-17.4-.7 6.2-.9 12.2.2 18.3 1 1.1.1 2.1.5 3 1.1.8 3 0 5.4-2.8 7-4-.3-7.8-1.8-11.8-2.3-.8-.2-1.6-.2-2.5-.1 3.3.6 6.5 1.1 9.8 2 .8.2 1.9.1 2.2 1.3-.1.3-.4.5-.7.6-3.1.8-6.4 1.3-9.6 1.5-7.6.4-14.9-1.1-22.3-2.6-3.2-.6-6.3-1.4-9.4-2.6-1.4-.6-2.6-1.4-3.7-2.4-1.7-1.5-2.3-3.2-1.4-5.4-.1-.5 0-1.1.3-1.5 1.2-.3 1.8-1.5 3-1.7 4.4-1 8.9-.5 13.3-1.2 1-.3 1.7-.2 2.3.1z"></path><path fill="#010101" d="M104.1 253.9c.5 0 .9.3 1.1.8 2.2 4.8 5.7 8.6 9.4 12.3 7.6 7.7 16.1 14.6 25.3 20.4 3.2 2 6.5 3.7 9.9 5.2.6.3 1.2.6 1.8 1 .5.3.7.9.4 1.4-.2.5-.7.9-1.3.8-.5-.1-1.1-.2-1.6-.4-3.1-1.1-6-2.5-8.8-4.2-10.8-6.5-20.6-14.4-29.3-23.5-2.6-2.8-4.9-5.8-7-9-.6-.9-1.1-1.9-1.3-2.9-.1-1.3.5-2 1.4-1.9z"></path><path fill="#030202" d="M139.8 273.8c-.1.7-.7 1.2-1.4 1.2-.1 0-.2 0-.4-.1-.8-.3-1.5-.8-2.1-1.4-3.7-3.1-7.1-6.4-10.6-9.7-.6-.6-1.3-1.1-1.8-1.8-.6-.5-.6-1.3-.1-1.9.5-.5 1.4-.6 1.9-.1.3.2.6.5.9.8 4 3.8 8.1 7.5 12.3 11 .5.5 1.3 1 1.3 2z"></path><path fill="#ffa76c" d="M239.2 464.1c1.3.1 2.5.7 3.7-.2 1.7.2 2.5 1.9 4 2.6 2.3 1.1 4.7 2 6.9 3.1.3.8.4 1.6.2 2.4-.9.6-1.9 1.3-2.9 1.9-3.2 1.8-6.7 2.1-10.2 2.5-5.5.5-11 .6-16.6 1.4-.8.1-1.7.1-2.5.1-1.8 0-3.5.1-5.3.3-1.1.4-2.3.2-3.4-.4-.1-1.3 1-1.4 1.8-1.7 3.4-1.8 6.9-3.4 10.5-4.8-2.4.3-4.4 1.4-6.6 2.4-2.9 1.4-5.6 3-8.5 4.1-1.9-.2-3.8-.6-4.7-2.6.2-1.1 1.2-1.4 2-1.8 3-1.6 6-3 9.1-4.3-4.3.9-8 3.2-11.8 5.3-.5-2.6-.3-3.2 1.7-4.5 5-3.2 10.5-4.6 16.4-5.3 3.4-.4 6.8-.1 10.2-.7 1.1-.2 2.3-.2 3.5.1.9.4 1.7.4 2.5.1z"></path><path fill="#010000" d="M254 472.1c-.4-.8-.6-1.7-.5-2.5 2.1-3.3 5.1-5.8 8-8.3 8.5-7.2 18.6-11.1 29.4-13.2 6.3-1.2 12.7-2.1 19-3.7 8-2 15.5-5 21.6-10.8 1.8-1.7 2.3-1.5 3.6.6.4.6 1.1 1.1 1.9 1.2 2.7.7 5.4 1.3 8.2 1.5 8.8 1.3 17.5 2.7 25.7 6.4 5.9 2.7 11.4 6.4 16.2 10.8 5.5 4.8 9.6 10.8 14.3 16.2.3.3.5.8.4 1.3-.3.9-1.2 1.5-2.2 1.5-5.3-6.5-10.2-13.2-16.7-18.6a59.91 59.91 0 0 0-27.5-12.7c-4.8-.9-9.6-1.7-14.4-2.4-2.5-.4-5-1-7.4-2-.7-.4-1.5-.3-2.1.3-6.4 5.6-14.3 8.1-22.4 10.1-5.6 1.4-11.4 2.1-17.1 3.3-8.5 1.7-16.6 4.3-23.9 9.3-2.5 1.6-4.9 3.6-7 5.7-1.2.9-2.3 2-3.3 3.1-1.1 1-2.4 2.1-3.8 2.9z"></path><path fill="#0a0504" d="M451 477.4c-4-.5-7.9-1.3-12-1.5-2.8-.3-5.6-.2-8.3.1-.5.1-.9.1-1.4.1-.6 0-1.6.4-1.7-.6s.9-.8 1.6-.9c3.7-.5 7.4-.6 11.1-.1 3.1.3 6.3.8 9.4 1.2.6.3 1.1.9 1.3 1.7z"></path><path fill="#090504" d="M210.3 477.9c4.5-3.1 9.5-5.6 14.7-7.3.6-.2 1.5-.6 1.8.3s-.7 1-1.4 1.2c-4.3 1.5-8.4 3.5-12.3 5.9-.9 0-1.8 0-2.8-.1z"></path><path fill="#0d0806" d="M445.9 485.2c-3.3-1.1-6.7-1.8-10.1-2.3-1-.1-2-.3-3-.5-.3 0-.6-.3-.6-.6 0-.5.3-.7.7-.7h.9c4.9.5 9.7 1.5 14.4 3.2-.6.6-1.4.9-2.3.9z"></path><path fill="#0c0705" d="M204.9 474.5c0-.6.5-.9.9-1.2 3.2-1.9 6.5-3.5 10-4.7.4-.1.7-.3 1.1-.3s1 0 1.1.5-.2.7-.6.9c-.6.2-1.1.5-1.7.7-3.6 1.3-7 3-10.2 4.9-.2-.2-.4-.5-.6-.8z"></path><path fill="#fff" d="M171.2 214.2c-10.5.3-21 .6-31.4 1.5-13.9 1.3-27.9 1.3-41.9 1.9-10.3.4-20.6.5-30.9.8-2.2.1-4.3.2-6.5.4-6.2.6-12.4.8-18.6.6-7.1 0-14.3-.1-21.4.3-4.9.3-5.8-.6-5.6-5.4.4-7.3.2-14.6-.5-21.9-.8-9.4-.5-18.9-1.1-28.4-.6-8.9-1.2-17.8-2-26.7-1.2-12.4-2-24.7-2.7-37.1-.4-7.8-.9-15.7-1.4-23.5-.3-3.8-.9-7.7-1.3-11.6-.4-5.2-.6-10.4-.5-15.6.1-5.9-.3-11.8-1.1-17.6-.6-3.8-.4-7.6-.7-11.4-.1-1 .3-1.4 1.2-1.5 3.2-.3 6.3-.5 9.5-.5 6.5 0 12.9-.5 19.3-1 7.7-.5 15.3-1.2 23-1.7 8.4-.6 16.7-.9 25.1-1.7 5.5-.5 11-.6 16.5-.8 13.8-.4 27.6-.8 41.4-1.4 13.3-.6 26.7-.9 40-.7 11.2.1 22.3-1.1 33.5-1.6 4.1-.2 8.2-.5 12.3-.6 9.1-.2 18.1-1.2 27.2-1.8 5.3-.3 10.7-.8 16-.9 6.8-.2 13.5-.8 20.2-1.3 4.3-.3 8.7-.4 13-.3 8.7.2 17.4-.5 26-1.1 8.4-.6 16.9-.8 25.4-.9 6.9 0 13.9.4 20.8 1.1 1.6.2 3.3.2 4.9 0 .9-.1 1.7 0 2.5.3.8.2 1.3.9 1.3 1.7.7 7.1 1.7 14.2 2 21.3.5 12.7 1.1 25.3 1.8 37.9.8 13.3 1.7 26.5 2.5 39.7 0 .3.1.6.2.9.4.4.3 1 .3 1.5v28.3c0 .6.2 1.3-.3 1.8-.9 0-1-.8-1.6-1.2 0 .6.5 1.3 0 1.9-.2.3-.3.7-.8.3-3-2.4-6.4-4.2-9-7.3s-6.6-3.5-10.5-2.7c-2.8.6-5.1 2.2-7.5 3.7s-4.5 3.3-7.2 4.2c-2.1.6-2.2.6-3.1-1.3-1-2.2-2.6-2.8-4.7-1.6-2.3 1.2-3.7 3.5-3.8 6-.1 2.3-1 4.4-2.6 6-2.4 2.6-4.4 5.7-5.7 9-2.9 6.9-7 13.2-12.1 18.6-1.8 1.9-3.6 3.9-5.3 5.8-2 2.3-3.2 5.2-3.6 8.2-.1.8-.3 1.5-.4 2.3-.4 2.2-1.8 4-3.8 5-2 1.1-4.1 2.2-5.3 4.3-.5.8-1.4.9-2.2 1.2-2.8.8-5.7 1.4-8.6 1.7-7.5 1.2-15 2.6-22.5 3.7-5.6.8-11.2 1.4-16.8 2-.9.1-1.3 0-1.3-1 .1-2.4-1.4-3.4-3.8-3.1-.5.1-1.1.1-1.6.2-2.5-.2-4.8 1.2-5.8 3.5-4.8.8-9.7.4-14.6.8-2.9.1-5.9-.1-8.8-.4-3.6-.3-7.2-.8-10.8-1.3-5.5-.7-11.1-1.4-16.4-3.2-4.1-1.4-7.1-4-8.3-8.4-.2-1.1-.3-2.3-.3-3.5 0-3.5-.3-7-.9-10.4-.2-.8-.4-1.5-.8-2.2-.4-1-1.3-1.6-2.4-1.6-1 0-2 .7-2.4 1.6-.5.8-.7 1.8-.6 2.7v6.3c-1.1-2-1-3.8-1.4-5.5-.4-2.8-1-5.6-1.9-8.4.6-.6 1.3-.8 2.1-.7 4.1.2 8.2-.4 12.3-.5 12-.4 24-.7 36-1.3 4.9-.2 9.8-.3 14.6-.5 7.4-.4 14.7-1.1 22.1-1 .5 0 .9-.2 1.3-.5-1.9-1.6-1.6-3.8-1.5-5.9.5-11 .3-22 .5-33 .3-14.5.4-29 .4-43.5 0-4.4-1.2-5.5-5.5-5.6-3.3.1-6.5.3-9.7.8-3.8.4-7.5 1.1-11.3 1.2-4.2.1-5.2 1-5.4 5.3-.3 4.6-.4 9.3-.5 13.9-.3 11.3-1.1 22.6-1.4 33.9-.3 9.5 0 19.1-.1 28.6 0 5 0 5-4.9 5.5-2.7.2-5.4.2-8.1.1-2 0-2.7-1-2.8-2.9-.1-3 .4-5.9.5-8.8.3-6.2.7-12.4 1.1-18.6.4-4.1.7-8.2.6-12.3-.2-4-1.4-5.3-5.4-5.3h-13.5c-3 0-3.6.6-4.1 3.6-.2 1.3-.3 2.6-.2 3.9.2 12.3-.9 24.6-1.4 36.9-.2 3.7-.7 4.1-4.4 4.5-2.4.3-4.8.4-7.2.3-2.2-.1-2.8-.8-2.6-2.9.5-5 .6-10.1 1.1-15.1s-1-6.6-6.1-6.6c-4.3.2-8.5.6-12.7 1.4-2.9.4-3.9 1.7-3.8 4.6.1 5.2-.4 10.4-.5 15.6-.1 2.9-.6 3.4-3.4 3.5H144c-3.1.1-4.1-.5-3.8-3.7.6-6.2.2-12.4.7-18.6.5-6.4.1-12.9.2-19.3.1-7.5-.3-15-1.4-22.5-.7-4.8-2-6-7-5.8-5.7.1-11.3.8-16.9 2-3.9.9-4.9 2.3-4.5 6.3.5 4.8.7 9.6.7 14.4.2 14.6.1 29.2.1 43.8v2.1c.2 1.3-.7 2.5-2 2.6h-.5c-2.8.1-5.6 0-8.4.2-1.2.1-1.9-.6-2-1.8 0-.2-.1-.5-.1-.7.5-4.8-.3-9.6.3-14.4.3-2.6.1-5.1.2-7.7.1-4.9-.3-9.8.4-14.6.1-1.2.1-2.3 0-3.5-.2-3.1-1.4-4.1-4.5-3.8-5.3.6-10.6 1.5-15.9 2.3-6.7 1-6.3.2-7.1 7.5-1 10.4-1.4 20.9-1.3 31.4 0 6.4-.6 7-7 7.1-6.8 0-6.5.3-6.5-6.5v-13c0-2.5.3-2.8 2.9-4.1-2.2-.2-2.8-1.4-3-3.2-.4-4.9-.8-9.9-.9-14.9 0-1.9.4-3.4 3.2-3.8-1.4-.6-2.7-.4-3.2-1.5-.3-1-.5-2-.5-3-.7-7.3-.7-14.6-1.3-21.8-.2-2.6 0-3 3.2-4.4-3.5-.6-3.6-.8-3.8-4.6-.3-4.5-.8-9-1.2-13.4 0-.4-.1-.8-.2-1.2-.3-3.3 0-3.7 3.8-4.7 0-.2 0-.3-.2-.3-3.9-.6-3.9.1-4.4-4.7-.7-6.6-1.3-13.1-2.1-19.7-.1-.6.1-1.2-.5-1.8-.5.7-.2 1.3-.2 2 .9 11.7 2 23.3 3.1 35 .9 10.3 1.6 20.6 2.1 30.8.4 7.3.6 14.7 1.2 22.1.8 10.6.8 21.2.8 31.9v2.1c-.2 2.3-.8 3-3.2 3.1-3.5.1-7-.1-10.5.5-.5 0-.9.1-1.2.4 3.9 0 7.6.2 11.3-.2 2.8-.3 3.5.3 3.6 3.1.1 4.1.7 8.2.5 12.3-.1.7.1 1.4.5 2 1-.4.8-1.3.7-2-.5-3.7-.2-7.4-.6-11.1s.6-4.4 4.1-4.5c12.5-.3 25-1 37.4-1.5 8.3-.4 16.6-.6 24.9-1 9.6-.4 19.2-.7 28.8-.8 1.2-.1 2.5.1 3.6.6 1.4 1.3 2.4 2.9 2.8 4.8-1.2 1.3-3.2.6-4.7 1.7 2 1.2 4.1-.7 5.9.5.8.4.9 1.2 1.3 1.9 1.9 4.3 3.6 8.8 4.9 13.3 1.7 5.5 3.5 10.9 5.4 16.3 0 1.3.2 2-.8 2.5z"></path><path d="m346.7 168.5-3.4-1.2-1.8-.6c-2.2-1-2.5-2.7-.7-4.4.8-.7 1.7-1.4 2.5-2 .9-.6 1.8-1.3 2.5-2.2-1.6-.9-3-2-4.2-3.3-1-1-1.3-2.5-.9-3.9 1.1-4.1 4.6-7.1 8.9-7.4 4.1-.5 8.3.5 11.8 2.6 2 1.2 3.9 2.5 5.8 3.9 2.4 1.8 3.4 4.9 2.6 7.7-.7 2.9-3 5.1-5.9 5.7-3.3.8-6.7.4-9.7-1.2-1.6-.8-3.1-1.7-4.7-2.6-.5-.3-1-.7-1.7-.2l-5.6 4.6c1.3.9 2.7 1.1 4 1.5 1.5.5 2.9 1 4.3 1.7.8.4 1.5 1 1.3 2s-.9 1.4-1.8 1.6c-.5.1-.9.1-1.4.1-.4 0-.6.2-.6.5.2 2.4-1.6 2.7-3.3 3.1-.1 0-.1.1-.2.1.1.1.1.3.2.3 4 1.9 7.8 4.1 11.5 6.6 2.1 1.3 4.7 1.8 7.2 1.2 1.6-.3 3.1-.8 4.7-1.2.5-.1 1-.3 1.6-.5.6-.2 1.3 0 1.6.6.3.7-.1 1.2-.7 1.5-.3.2-.7.4-1.1.5-2.3.8-4.6 1.3-7 1.6-2.6.4-5.3-.2-7.6-1.7-4.5-2.9-9.2-5.6-14-7.9-1.1-.5-2-1.1-2.9-1.9-.6-.4-.8-1.2-.6-1.9.3-.7 1.1-1 1.8-.8 1.5.2 3 .5 4.6.7.8.1 1.6 0 1.2-1.2s1-1.2 1.7-2z"></path><path fill="#020201" d="M372.2 138.2c0 1.1-.5 2.2-1.4 3-1 1.1-2.2 2.2-3.4 3.1-2.7 1.8-4.6 1.1-5.2-2.1-.3-1.4 0-2.9-1.4-4-.6-.5-.5-1.4.1-2.1 1.7-2.1 4.2-3.2 6.9-3.2 2.8.1 4.4 2.2 4.4 5.3zM384 143.4c-.3 1.7-.9 3.2-1.8 4.7-.1.2-.3.4-.5.5-2 .3-3.6 1.6-5.6 2.1-2.3.6-3.6-.6-3.3-3 .3-2.1 1.5-3.9 1.7-6 0-.5.6-.9 1.1-1 2-.8 4.1-.9 6.1-.4 1.5.3 2.4 1.7 2.3 3.1z"></path><path fill="#100e0e" d="M387.4 138.1c-.1-1-.6-1.9-1.4-2.6-.3-.3-.7-.7-.2-1.1s.9-.1 1.3.1c.9.7 1.2 1.7 1.9 2.8.3-.6.4-1.2.3-1.8.2-9.3 0-18.6-.2-27.9 0-.6 0-1.2.1-1.8.6.4.5 1.1.5 1.7v34.7l-.4-.9c-.4-.1.1-1-.6-.9s-1-.3-.9-1c-.1-.4 0-1-.4-1.3z"></path><path fill="#0e0a08" d="M398.4 151.2c-.2 1.5-1.1 2.8-2.5 3.6-.5.3-1.1.2-1.5-.3-.4-.4-.3-1 .1-1.4.8-.6 1.4-1.4 1.7-2.4.1-.5.7-.9 1.2-.7.7.1 1.1.7 1 1.2z"></path><path fill="#0e0907" d="M344.2 139.8c0-.4.1-.7.2-1.1.1-.3.3-.5.6-.7.4-.3.9-.3 1.3.1.8.9.1 1.8 0 2.6 0 .5-.5.9-.9.8h-.1c-.7 0-.9-.5-1-1-.1-.2-.1-.5-.1-.7z"></path><path fill="#fff" d="M388.5 140.4c.2-.1.5-.3.5-.3.3.3.3.8.1 1.2-.2-.3-.5-.6-.6-.9zM407.9 223.5c7.5 15.6 16 30.4 22.9 46 4.6 10.6 8.4 21.5 11.4 32.7.4 1 0 2.2-1 2.6-3.7 2.2-7.3 4.7-11 7-1.5 1-3.1 1.8-4.7 2.5-1.8.7-1.8.7-2.4-1.1-1.9-5.3-3.7-10.7-5.6-16-.2-.7-.5-1.3-.9-1.9-.2-.4-.8-.6-1.2-.4-.5.2-.7.6-.6 1.1.1.5.3 1.1.4 1.6 1.4 4.1 2.7 8.2 4.2 12.3 2.8 8.3 4.8 16.8 6.1 25.5 1.4 8.5 2.9 17 4 25.5.7 5.7 1.3 11.4 1.9 17.1.2 1.5 0 1.7-1.6 1.9-7.6 1.1-15.3 1.5-23 1.4l-69.1-1.5c-14.8-.3-29.6-.5-44.5-.4-7.2 0-14.4-.5-21.6-1-6.3-.4-12.5-.9-18.8-.8-2.5 0-5-.3-7.5-.8.1-.9.4-1.8.9-2.6 1.4-3.8 3.2-7.4 4.9-11 5.3-11.2 9.4-23 12-35.1 2-9.2 2.9-18.5 4.1-27.8.2-1.5.1-3.1.2-4.6 0-2 0-2-1.8-2.6-4.5-1.5-8.9-3-13.4-4.7-7.9-2.9-15.5-6.4-23-9.9-.4-.2-.8-.4-1.2-.7-2.2-1.2-2.2-1.3-1.4-3.6 3.1-8.3 6.4-16.5 10.3-24.4 4.9-10.4 8.7-21.4 11.3-32.7.5-1.9 1.1-3.7 1.6-5.6.2-1.1 1.1-1.9 2.2-1.9 4.5-.5 9.1-1.2 13.6-1.6s9.2-1.3 13.8-2.1c6-1.1 11.9-2.2 17.9-3.2 1.4-.2 3-1.5 4.1-.7 1 .7 1.2 2.4 1.8 3.7 3.4 6.4 8.1 12 13.8 16.5 7.7 6.4 17 10.8 26.9 12.6 1.5.1 2.7 1.2 2.9 2.7.3 1.6.8 3.1 1.6 4.6.6 1.2.6 2.7-.2 3.9-7.7 15.8-13.8 32.4-18.2 49.4-1.2 4.7-2 9.6-2.6 14.4-.5 3.2.1 6.6 1.7 9.5 1.8 3.4 3.9 6.7 6 10 .3.4.5.8.8 1.1 1.5 1.7 2.9 1.9 4.6.3s3-3.3 4.5-5c2.2-2.4 3.9-5.2 6.3-7.4.4-.6.7-1.2.7-1.9 1.1-5.6 1.8-11.2 2.2-16.8 1.1-16.5.7-33 .6-49.6 0-1.5-.6-3.1-.1-4.3s2-2.1 3-3.2c1.4-1.4 2.7-2.8 4-4.2.5-.6 1.3-.9 2-.7 6.4 1.2 12.6.1 18.8-2 5.8-2 11.4-4.4 17-6.9 2.4-1.1 4.7-2.5 6.8-4 .4-.5 1-.7 1.6-1.2zM401.8 471.4c-2.5-2.7-4.8-5.7-7.1-8.6-7.1-8.8-15.7-15.9-26.3-20.1-6.4-2.6-13.2-3.8-20-4.9-3.7-.6-7.4-.8-11-1.8-.7-.2-1.5-.4-2.2-.7-.5-.2-1.1-.3-.7-1.1.2-.5 0-1.1-.5-1.3h-.1c-.7-.4-1.2 0-1.6.5-6.6 7-15.2 9.8-24.2 12-5.7 1.4-11.4 2.1-17.1 3.3-5.3 1-10.5 2.6-15.5 4.7-7 3.1-13.2 7.5-18.5 13-1.1 1.1-2.2 2.1-3.3 3.2-.4 0-.7.3-1.1.1-3.4-1.5-7.1-2.6-9.5-5.7-3.6-2.8-6.3-6.7-7.6-11.1-2.9-8.9-4.4-18.1-4.4-27.4 0-2 .3-4 .3-6-.1-1.1.6-2.1 1.7-2.5 4.1-2 8.2-4 12.3-6.1 3.6-1.8 7-4 10.3-6.4 2.1-1.6 3.8-3.7 4.8-6.1 2.2-5.2 4.1-10.5 5.5-16 .3-1.1.6-1.7 2-1.6 10.4.9 20.7 1.4 31.1 1.3 18.5-.1 37.1.5 55.6.8 11.5.2 23 .4 34.4.6 6.1.1 12.3.3 18.4.4 2.1 0 2.1 0 2.4 2.2 1 8.1 3.2 15.9 6.4 23.4 2 4.6 5.3 8.6 9.5 11.5 3 2.2 6.2 4.1 9.5 5.9.9.3 1.4 1.2 1.2 2.2-.3 2.3-.7 4.6-1.3 6.9-2 7.4-5.1 14.5-9.2 21-2.5 3.9-4.9 7.7-7.3 11.6-.3.5-.8 1-.7 1.6-1.6.8-3.3.6-5 .7-3.4.3-6.8.2-10.2.8-.6-.1-.8-.2-1-.3z"></path><path fill="#fff" d="M232.1 413.1c1.7-9.7 4.8-19.1 9.2-27.9.8-1.7 1.7-3.3 2.5-5 .3-.7.7-1.2 1.6-1 5.6 1.3 11.4.6 17.1 1.2l1.3.2c-.2.8-.3 1.6-.5 2.3-1.5 5-3.3 9.8-5.3 14.6-.9 1.9-2.2 3.6-3.9 4.8-3.2 2.4-6.7 4.6-10.3 6.4l-11 5.5c-1 0-.9-.5-.7-1.1zM351.2 226c-1.3 2.5-3.2 4.2-4.7 6.3-.6.8-1.3.4-1.9.2-7-1.3-13.6-3.8-19.6-7.5-6.7-4.1-12.5-9.5-17.1-15.8-1.5-2-2.7-4.2-3.7-6.4-1-2.4-.8-3.3 1.4-4.9 1.5-1.1 1.5-1.1 2.8.3 1.1 1.1 2.1 2.3 3.2 3.4 10.3 10.9 22.3 19.2 36.7 23.6.9.3 1.8.5 2.9.8zM222.2 277.2 218 274c-.6-.5-1-1-.3-1.7 4.7-5.3 6.6-11.8 8.9-18.2 3.5-9.9 6.1-20 8.8-30.1 1.4-5.3 3.4-10.5 5.8-15.4 1.1-2.3 3.6-3.5 6.1-3.1.4.1.7.4.7.8.1.9 0 1.7-.2 2.5-4 14.6-7.8 29.2-14.8 42.8-3.8 7.5-6.6 15.4-9.6 23.2-.2.8-.6 1.7-1.2 2.4zM356.8 226c5.4.1 10.8-1 16.2-2 7.8-1.4 15.5-3.2 23.1-5.2 3.3-.9 6.3-2.5 9.5-3.8.6-.3 1.3-.6 1.9-.8 1.3 2.8.4 6.1-2 8-4.8 3.5-10.3 5.7-15.7 7.9-4.9 2-9.8 4-15 4.9-3.4.7-6.9.8-10.4.3-1.2-.1-2.2-.8-2.7-1.9-1.2-2.3-2.8-4.5-4.5-6.4-.3-.3-.6-.5-.4-1zM331 302.6c6.1 1.4 12.1 1.8 18 3 2.5.5 2 .3 1.8 2.5-.2 1.9-.6 3.7-.8 5.5-.1 1-.6 1.2-1.5 1.1-5.6-1-11.2-1.6-16.8-2.2-2.1-.2-2.2-.3-1.9-2.4.2-2.6.6-5.1 1.2-7.5zM351.3 303.5c-2.6-.4-5-.8-7.5-1.2-3.6-.5-7.2-1-10.8-1.6-1.8-.3-1.8-.4-1.4-2.1l1.5-6.3c.1-.7.3-1.1 1.2-.9 5 .8 10.1 1.4 15.1 2.2 2.5.4 2.5.5 2.3 2.9s-.2 4.5-.4 7z"></path><path fill="#feffff" d="M447.2 303.9c.6 1.8 1 3.6 1.3 5.5.2 1.1-.6 1.7-1.4 2.3-5 4-10.6 7.3-16.6 9.6-1.3.5-2.6.9-3.9 1.4-.6.2-1 .1-1.2-.7 0-.3-.2-.6-.2-.9-.1-1.2-1.1-2.5-.6-3.6s2-1 3-1.5c1.7-.9 3.4-1.8 5-2.9l14.6-9.2z"></path><path fill="#fff" d="M352.2 286.5v4.2c0 .7-.3 1-1 .8-5.1-1.1-10.4-1.3-15.6-2.1-1.1-.2-1.5-.4-1-1.6.8-2.3 1.5-4.7 2.2-7.1.3-.9.6-1.3 1.6-1.1 3.7.8 7.5.8 11.3 1.3.4 0 .8.1 1.1.2 1.2.1 1.7.6 1.6 1.9-.1 1.2-.1 2.3 0 3.5h-.2z"></path><path fill="#fefefe" d="M329.9 314.6c6.2.8 12.2 1.4 18.5 2.7-1.1 1.4-2.1 2.6-3 3.8-2 2.4-4.1 4.8-6.2 7.2-.5.6-1.2 1.1-1.8.1-2.8-4.2-5.6-8.3-7.4-13.1-.1-.2-.1-.5-.1-.7zM352.4 278.9c-5-.9-9.7-.7-14.5-1.7 1-2.6 1.9-5.1 2.7-7.5.3-.7.6-1 1.4-.9 3.1.4 6.1.8 9.2 1.2.7.1 1.3.3 1.3 1.2-.2 2.5-.1 5-.1 7.7zM353.8 226.8c2.3 2.3 4.3 5 5.9 7.8.5.8.7 1.4-.2 2.2-2.1 2-4 4.1-6 6.1-1.3 1.2-1.6 1.2-2.4-.3-1.2-2.4-2.1-5-2.8-7.6-.2-.7.2-1.2.6-1.7 1.7-2 3.4-4.2 4.9-6.5zM419 383.7c-.4 3.1-.7 6.2-1.1 9.3-.4 2.4-.7 4.9-.9 7.3 0 1.1-.2 2.1-.8 3.1-2.3-6.3-3.9-12.8-4.7-19.4l7.5-.3zM352.4 267.7l-10.4-1.3c.8-2.5 1.7-4.9 2.8-7.3.2-.4.4-.6.9-.6 1.9.3 3.8.7 5.7 1 .6.1 1.1.4 1.1 1.2-.1 2.4-.1 4.7-.1 7z"></path><path fill="#fff" d="m352.3 257.4-6-.9c-.4-.6 0-1.1.1-1.6 1-2.7 2.2-5.3 3.5-7.8.3-.5.3-1.3 1.3-.9.6.2 1.1.5 1.1 1.3v9.9zM432 422.2l4.3-5.8.5.1v8.5c-1.7-.8-3.3-1.8-4.8-2.8z"></path><path fill="#998a8a" d="M232.1 413.1c.2.4.1.9.6 1-.2.3-.6.6-.9.2s0-.8.3-1.2z"></path><path d="M156.2 173.7c-13.4.4-26.8.7-40.3 1.2-16.8.6-33.5 1.4-50.2 2.1-2 .1-4 .2-6 .1-1.3 0-1.6.5-1.5 1.7.2 4.3.4 8.7.6 13 .1 1 .1 2-.2 3-.1.6-.6.9-1.2.9-.5 0-.9-.4-.9-.9-.1-.5-.1-1.1-.1-1.6-.2-4.8-.4-9.6-.5-14.4 0-1.3-.5-1.6-1.7-1.5l-11.4.3c-.8.1-1.7 0-2.5-.2-.5-.2-.7-.6-.7-1.1.1-.4.4-.7.8-.7h1.2c4.2-.1 8.4-.3 12.6-.4 1.7-.1 1.7-.1 1.7-1.7-.1-10.6 0-21.3-.7-31.9-.7-10.2-1.2-20.4-1.7-30.7-.5-9.5-1.3-19-2.1-28.6-.9-10.8-1.9-21.5-2.8-32.2-.1-.5-.1-1.1-.1-1.6 0-.7.2-1.3 1-1.3s1.1.5 1.2 1.2v.7c.7 7.3 1.4 14.5 2.2 21.8.1 1.1-.3 2.6.5 3.3s2.2.1 3.4.2c.3 0 .6 0 .9.1.6.1 1 .4 1 1.1-.1.5-.4.9-.9.9-.5.1-1.1.1-1.6.2-2.8.2-2.8.2-2.6 3.1L54.8 93c.1 2 .3 4.1.6 6.1 1.1-.2 2.1-.4 3.1-.5.7-.1 1.5 0 1.6 1s-.6 1-1.2 1.1c-1.1.2-2.6 0-3.2 1s0 2.3 0 3.4c.4 7.2.7 14.4 1.1 21.6 0 .5.1.9 0 1.4 0 1 .4 1.5 1.4 1.3.6-.2 1.2-.2 1.8-.1.5.1.9.5.9.9 0 .5-.3.9-.8 1-.5.2-1.1.2-1.6.2-1.3-.1-1.6.4-1.5 1.6.3 4.9.6 9.9.8 14.9 0 .3 0 .6.1.9.1.8-.2 1.7.3 2.3s1.5.1 2.2.2c.3 0 .6.1.9.2.4.1.6.5.6.9s-.2.8-.6.9c-.3.1-.6.1-.9.1-2.4.3-2.4.3-2.4 2.5 0 6 .1 12 .2 17.9 0 1.1.3 1.5 1.5 1.5 2.5-.1 5-.1 7.5-.2 2.8-.1 2.8-.1 2.9-2.9.1-3.3.1-6.7.1-10 0-2.3.1-4.7.4-7 .3-2 .4-4 .3-6-.4-5.6.7-11.1 1.2-16.7.2-1.6.7-2.2 2.3-2.4 7.1-1 14.1-2.3 21.2-3 3.4-.4 4.8.8 4.9 4.2.1.9.1 1.7 0 2.6-.8 8.4-.1 16.9-.7 25.4-.3 4.4.2 8.9-.2 13.3-.1.9.2 1.3 1.2 1.2 3-.1 6.1-.3 9.1-.3 1.2 0 1.4-.6 1.4-1.6 0-2.9 0-5.9-.1-8.8-.3-8 .1-16 .1-24 0-8.5-.1-17.1-.5-25.6-.1-1.4-.4-2.8-.5-4.2-.2-2.2.6-3.3 2.6-4.2.6-.3 1.1-.5 1.8-.6 3.6-.8 7.3-1.4 11-1.8 1.6-.1 3.1-.3 4.6-.4 2-.3 4-.2 6 .2 1.8.3 3.2 1.8 3.5 3.6.7 3.2 1.1 6.4 1.3 9.7.5 10.2.9 20.5.4 30.7-.3 7.3-.5 14.6-.7 21.9v1.2c0 2.8 0 2.8 2.8 2.7 1.3-.1 2.6-.1 4-.1.9 0 1.2-.3 1.2-1.2 0-5.2.1-10.4.2-15.6 0-1.1 0-2.2.1-3.3.1-1.6 1.3-2.9 2.8-3.4.1 0 .3-.1.4-.1 5.4-.8 10.7-1.9 16.2-1.6 3.6.2 5 1.8 4.8 5.4-.3 5.8-.8 11.6-1.2 17.4-.1 1.8-.2 1.8 1.6 1.8l9.3-.3c1 0 1.6-.2 1.6-1.4.3-3.9.9-7.7.9-11.6 0-4.7.2-9.3.6-14 .3-3.4.1-6.8.1-10.2-.1-3.1.1-6.2.6-9.3.4-1.9.9-2.5 3-2.6 1.5-.1 2.9.1 4.4.1 3.3 0 6.5 0 9.8-.3 5.3-.4 7.1 1.4 7 6.7-.1 6.3-.7 12.6-1.1 18.8-.2 3.9-.4 7.9-.7 11.9l-.6 9.3c-.1 1.5 0 1.6 1.5 1.5 3.8-.1 7.6-.2 11.4-.4 1.6-.1 1.6-.1 1.6-1.8-.2-9.2-.1-18.5.1-27.7.2-9.5.6-18.9 1.1-28.4.3-5.7.4-11.5.5-17.2 0-2.7.2-5.5.5-8.2.4-3 .9-3.5 4-3.8 3.4-.3 6.8-.3 10.2-.9 4.2-.7 8.5-1.1 12.7-1.2 4.8-.1 6.1 1.1 6.3 5.9.3 8.2 0 16.3-.1 24.4-.1 9.9-.3 19.9-.3 29.8 0 8.5-.5 16.9-.7 25.4 0 1.7-.1 1.7 1.5 2 .6.1 1.3.3 1.3 1.1 0 .9-.8 1.1-1.5 1.2-.6.1-1.2.1-1.9.1-12.8.2-25.6 1.5-38.4 1.8-7 .2-14 .4-20.9.7-9.2.3-18.5.7-27.7 1l-.9-1.9c.1-6.1.5-12.2 1.1-18.3.3-2.9-.3-3.7-3.2-3.8-4.3.2-8.5.6-12.7 1.4-1.3.1-2.2 1.2-2.1 2.4v.2c.1 4.5-.2 9-.5 13.5-.2 3.4 0 3.4 3 4.6.6-.1 1.2.7 1.7 1.6z"></path><path fill="#f66b72" d="M154.4 171.4c-4.3.1-3.8.5-3.7-3.6.1-4.9.4-9.8.3-14.6 0-2.2.4-2.8 2.4-3.1 4.4-.8 8.9-1.3 13.4-1.4.7 0 1.4.1 2.1.2 1.5.4 1.8.7 1.8 2.3-.1 2.4-.3 4.8-.5 7.2-.3 3.7-.3 7.4-.8 11.1 0 .7-.2 1.4-.6 2-.7-1.3-.9-2.7-1.7-3.9-.4-.7-1-1.4-1.7-1.7-.7-.3-.7.3-.9.7-.9-.2-1.3-1.1-2.1-1.4-1.7-1.2-3.2-.3-4.8.4-.5.5-1.3.5-1.8 0-2.6.5-3.4 1.9-2.4 4.2.3.4.7 1 1 1.6z"></path><path fill="#0c0906" d="M155.8 165.4c.6-.2 1.2-.2 1.8 0 1.8 3.1 3.4 6.4 4.8 9.8.3.9 1.3 2.1 0 2.6-1.1.4-1.1-1.2-1.4-2-1.5-3.6-3.2-7.1-5.2-10.4z"></path><path fill="#0d0907" d="M162.4 165c1.4-.5 1.7.6 2.1 1.4l1.8 9.3c.1.8.2 1.5.2 2.3 0 .3-.2.6-.6.6-.3.1-.6-.1-.7-.4-.2-1.1-.4-2.1-.6-3.2-.4-3.1-1.1-6.2-2-9.3-.1-.2-.2-.3-.2-.5.1 0 0-.1 0-.2z"></path><path fill="#0e0909" d="M160.1 180.6c-1.7.2-3.4.5-5 .7-.8.1-1.7.2-1.9-.8s.8-1.3 1.6-1.5c1.4-.2 2.8-.4 4.1-.6.9.5 1.3 1.3 1.2 2.2z"></path><path fill="#e07476" d="M162.4 165.3c.2.1.3.3.2.5-.2-.1-.3-.3-.2-.5z"></path><path fill="#010000" d="M239.5 41c-13.2.5-26.4 1.2-39.5 2.1-9.2.7-18.4 1.1-27.6 1.6-11.4.5-22.8 1-34.1 2.2-4.3.5-8.7.8-13 1.1-1.5.2-2.9.1-4.4-.1-2.4-.4-3.9-1.7-4.2-4-.4-3.5-.7-7.1-.9-10.6 0-1.1.2-2.2.7-3.2.2-.6.8-1 1.5-.8h.1c.6.2.8.7.7 1.3-.6 4.5.4 8.9 1 13.4 0 .8.7 1.5 1.4 1.6 1.1.2 2.3.3 3.5.2 6-.6 12.1-1.2 18.1-1.6 5.9-.5 11.8-1 17.6-1.2 18.5-.7 36.9-2.1 55.3-3.2 13.9-.8 27.8-1.5 41.7-1 2.4.1 4.8 0 7.2 0 1.8 0 1.9-.2 1.7-1.9-.2-2.3-.6-4.6-.8-6.9-.2-2-.3-4-.3-6 0-.9-.3-1.5-1.3-1.5s-1.9-.2-2.8-.3c-7.3-.2-14.6-.5-21.9.4-7.9 1-15.8 1.1-23.7 1.8-10.4.8-20.7 1.7-31.1 2.5-4.1.3-8.2.4-12.3.7-7.7.5-15.5 1.4-23.2 1.6-3.1.1-6.2.2-9.3.2-4.4 0-8.7.2-13 .6-.9.1-2.2.5-2.5-.9-.2-.8.6-1.2 2.3-1.4 4.8-.5 9.6-.6 14.4-.6 9.1 0 18.1-.8 27.2-1.5 3.2-.3 6.3-.5 9.5-.7 9.1-.4 18.3-1.3 27.4-2.1 8.5-.7 17-1.1 25.5-1.7 5.7-.4 11.4-1.3 17.2-1.4 5.3-.2 10.6 0 15.8.4l2.1.3c1.2.2 2.1 1.2 2.1 2.5 0 4.8.8 9.4 1.2 14.1.3 3.3-.6 4.1-4 4.2h-20.7l-4.6-.2zM237.7 63.3c-13.1 9-25.5 18.8-37.9 28.6-6.6 5.2-13.2 10.5-19.4 16.4-2.8 2.6-5.3 5.5-7.9 8.2-.7.8-1.4 1.4-2.2 2.1-1.3.9-2.2.7-3.1-.7-.4-.6-.7-1.2-.9-1.9-3.3-7.4-7-14.5-11.2-21.4-2-3.4-3.9-6.9-5.9-10.3-1.3-2.4-2.9-4.6-4.8-6.6-.6-.8-1.6-1-2.4-.4-.5.3-1 .5-1.4.7-23.8 12.5-46.5 26.9-68 43-1.4 1.1-2.8 2.3-4.2 3.4-.7.5-1.4 1-2.1 1.4-.6.3-1.2.4-1.7-.2s-.1-1.1.5-1.6c2.6-2 5.1-4.1 7.7-6.1 7.3-5.6 15-10.7 22.6-16 14.1-9.8 29.1-18 44.2-26.2 4-2.2 4.8-2 7.7 1.5 1.2 1.4 2.3 2.9 3.2 4.6 4.5 7.9 9.4 15.6 13.5 23.7 1.8 3.4 3.4 7 5.1 10.5.7.2 1-.4 1.3-.8 9.3-10.6 20.2-19.2 31.2-27.8S223.8 70 235.4 62c.3-.2.5-.4 1.1-.9-1.7-.2-3.4-.1-5.1.2-2.1.3-4.3.8-6.4 1.1-.9.1-2.2.6-2.4-.6-.3-1.5 1.2-1.3 2.1-1.5 4.9-1.2 9.9-1.8 15-1.7.5 0 1.1 0 1.6.1 1.1.2 1.4.8.9 1.8l-6.9 15c-.3.6-.5 1.1-.8 1.7-.4.7-.9 1.1-1.7.7s-.7-1-.4-1.6c.5-1.1 1-2.3 1.5-3.4 1.4-3 2.9-6 4.3-9 .3-.7-.1-.7-.5-.6z"></path><path fill="#010101" d="M39.9 125.4c0-7.4-.7-16-1-24.6-.2-5.1-.8-10.2-1.7-15.2-.6-4.5-.9-9.1-.8-13.7 0-.6 0-1.3.8-1.4s1.2.5 1.3 1.2c.1.4.2.9.2 1.3-.3 5.8.8 11.6 1.7 17.3.6 3.9.9 7.9 1.1 11.8.5 13.5 1.2 27 1.4 40.4.1 4.3 0 8.5-.1 12.8 0 .2 0 .5-.1.7 0 .6-.4 1-1 1.1-.6.1-1.2-.3-1.3-1-.1-.8-.1-1.5-.1-2.3.1-9.1.1-18.2-.4-28.4z"></path><path fill="#020202" d="M340.1 68.7c-.2 7.1-.8 14.2-1.8 21.3-.2 1.3-.5 2.6-.9 3.8-.2.6-.4 1.2-.8 1.7-.3.6-1 .9-1.6.6-.1 0-.1-.1-.2-.1-.6-.3-.8-1-.5-1.6 1-3.2 1.6-6.6 1.9-10 1-8.2 1.3-16.6.8-24.9-.2-2.9-.7-5.8-1.4-8.6-.2-.9-.8-2 .5-2.6.9-.4 1.4.2 1.9 2 1.7 6 2.4 12.2 2.1 18.4z"></path><path fill="#030303" d="M269.1 49.7h5.3c.8 0 1.6.1 1.7 1.2s-.8 1.3-1.6 1.3c-1.2 0-2.3 0-3.5.1-2.2 0-2.2.1-2.3 2.4 0 1.1-.1 2.2-.1 3.3 0 .8-.3 1.4-1.2 1.4s-1.2-.6-1.2-1.4c0-1.3 0-2.7.1-4 .1-1.2-.4-1.5-1.4-1.3-1.5.3-3.1.4-4.6.7-.8.2-1.5.2-1.7-.6s.4-1.4 1.2-1.6c1.6-.4 3.3-.7 5-.8 1.8-.1 1.8-.2 1.9-1.8.1-.9.2-1.8.3-2.8 0-.4.1-.8.2-1.1.2-.5.7-.9 1.3-.8.5.1.9.6.9 1.1v.1c-.3 1.4-.4 3-.3 4.6z"></path><path fill="#040404" d="M353.9 65.5c-.4 1.5-.7 3-1 4.5-.9 4.1-2.2 8.2-3.7 12.2-.5 1.3-1.1 2.5-2 3.6-.5.6-1 1-1.8.5-.6-.4-.8-1.2-.4-1.8v-.1c3-5.9 4.6-12.3 6.2-18.7.1-.4.2-.7.4-1.1.3-.6.9-.9 1.5-.7.6.3 1 1 .8 1.6z"></path><path fill="#070505" d="M123.2 182.2c-2.1-.1-4.2-.1-6.3.2-.1 0-.3.1-.4.1-.7-.1-1.3-.2-1.3-1-.1-.5.3-1.1.8-1.2h.1c.8-.2 1.7-.3 2.5-.4 3-.1 6-.1 9-.1.4 0 .8 0 1.2.1.8.1 1.6.4 1.5 1.4s-1 1-1.8 1l-5.3-.1z"></path><path fill="#090808" d="M196.3 179.2c-1.9.2-4.1.4-6.3.6-.5.1-1.1.1-1.6.1-.4 0-.8-.3-.9-.6-.2-.4 0-1 .4-1.2.5-.3 1-.4 1.5-.5 3-.3 6-.6 9-.8.8-.1 1.6 0 2.3.3.6.1.9.6.9 1.2 0 .7-.6 1.1-1.3 1.1-1.2-.1-2.4-.2-4-.2z"></path><path fill="#080404" d="M86.5 183.2c-1.2.2-2.9-.4-4.5.4-.6.2-1.3.1-1.7-.4-.9-.7-.9-1.7.2-2.1.5-.2 1.1-.3 1.6-.2 2.5 0 4.9 0 7.4-.1h.5c.9.1 2.1.1 2 1.4s-1.3 1-2.2 1h-3.3z"></path><path fill="#090606" d="M237.3 179.8h-3.5c-.7 0-1.3-.1-1.4-.9s.5-1.2 1.2-1.4c.5-.1.9-.1 1.4-.1h6c.6 0 1.2.1 1.8.2.8.2 1.6.5 1.4 1.5s-.9 1-1.7.8c-1.6-.1-3.4-.1-5.2-.1z"></path><path fill="#191414" d="M371.7 125.7c-.9-.1-1.8 0-2.7.2-.4.1-.8 0-.9-.5-.1-.4.1-.8.5-.9.2-.1.4-.2.6-.2 2.3-.5 4.7-.1 6.7 1 .1.1.3.2.4.3.3.3.6.6.3 1-.2.3-.6.5-1 .3-1.1-.8-2.4-1.1-3.9-1.2z"></path><path fill="#707f7f" d="M237.7 63.3c.1-.5.6-.7.8-.5.5.4.2.8-.3 1.1l-.5-.6z"></path><path fill="#ffa76c" d="M352.1 158.2c-2.2-1.1-4.3-2.1-6.3-3.1-.4-.2-.7-.4-1-.6-1-.9-1-1.6.2-2.4 1.3-.9 2.9-1.3 4.4-1 3.2.7 4.3 2.8 3.3 5.8-.2.4-.3.7-.6 1.3zM364.9 160.5c-3.7 1.8-7.1.9-10.5-1 1.2-1.9 2.5-3.7 4.9-3.3s4.7 1.4 5.6 4.3z"></path><path fill="#fff" d="M350.9 146.7c0 .1 0 .3-.1.3-1.1.7-2.2 1.3-3.3 1.9-.3.1-.5-.5-.4-.9.6-1.3 2-2 3.4-1.7.2 0 .3.3.4.4z"></path><path fill="#ffa76c" d="m369.4 138.7-5.7-1.5c1-1.5 2.8-2.3 4.6-1.8 1.3.4 1.5 1.1 1.1 3.3z"></path><path fill="#fff" d="M367.7 140.9c-.4 1-1.5 1.5-2.5 1.2-1.2-.3-.7-1.1-1-1.9 1.2-.2 2.4.1 3.5.7z"></path><path fill="#ffa76c" d="M380.7 145.9c-1.2-.9-2.3-2-3.1-3.3 1.3-.7 2.7-.8 3.7.1s-.3 1.9-.6 3.2z"></path><path fill="#fff" d="M378 147c-.4.6-1.2.9-1.8.5-.1-.1-.3-.2-.4-.3-.8-.8-.1-1.4.2-2.1l2 1.9z"></path><path fill="#38a1fc" d="M255.4 125.5c0 7.8.1 15.7 0 23.5 0 5-.3 9.9-.4 14.9-.1 3.8-.1 3.7-3.8 3.9-7.4.4-14.9.8-22.3 1.2-3.7.2-3.7.1-3.7-3.5-.2-13.5.2-27 .7-40.5.4-11.7 1.1-23.4 1.3-35.1 0-1.2.3-2.5.3-3.7.1-1 .5-1.6 1.5-1.6 7.5-.1 14.9-2 22.4-2.1 4.1-.1 4.4.1 4.5 4.2.2 8.1.1 16.1-.2 24.2-.1 3.3-.1 6.5 0 9.8.1 1.5 0 3.1-.3 4.8z"></path><path fill="#fff" d="M113.3 141.9c.2-9.1.2-18.1-.3-27.2 0-1.6-.2-3.3-.4-4.9-.4-2.6-.1-3.1 2.5-3.7 3.1-.8 6.2-1.3 9.4-1.6 2.2-.2 4.3-.3 6.5-.5.6-.1 1.2-.1 1.9-.1 3.4 0 4.1.6 4.7 4 1 6.1 1.1 12.2 1.3 18.3.4 8.8 0 17.5-.3 26.3-.2 6-.4 11.9-.4 17.9 0 1.2-.4 1.6-1.6 1.6-7.4.2-14.7.4-22.1.7-1.2 0-1.3-.5-1.2-1.4v-29.4zM97.6 151.8c-.7 5.7-.1 12.1-.5 18.4 0 .6-.1 1.2-.1 1.9 0 .9-.5 1.2-1.3 1.2-7.4.3-14.9.6-22.3.9-1.2.1-1.4-.3-1.4-1.4.4-6.9.2-13.8 1.1-20.7.1-.6.1-1.2.1-1.9-.4-5.7.4-11.3 1-16.9.1-1 .3-1.5 1.4-1.7 6.8-.9 13.5-2 20.3-2.9 1.6-.2 1.9.2 2.1 1.7.1.7.1 1.4 0 2.1-.6 6.3-.4 12.5-.4 19.3zM196 170c-2.6.1-5.3.3-7.9.4-1.6.1-1.8 0-1.5-1.4 1.4-8.2.9-16.6 1.6-24.8.3-3.7.1-7.4.1-11.2-.1-2.6.1-5.1.5-7.6.2-1 .5-1.5 1.6-1.5 4.7.2 9.5.2 14.2-.1 3.1-.2 3.8.7 3.8 3.8 0 5.7-.6 11.5-.9 17.2-.4 7.7-1 15.5-1.4 23.2-.1 1.5 0 1.8-1.8 1.8h-8.1l-.2.2z"></path></g></svg>